<svg id="" xmlns="http://www.w3.org/2000/svg" viewBox="0 0 184.65 167.43"><path d="M172.28 57.5c-1.56-4.6-4.3-8.6-5.65-13.16.3-.13.57-.26.87-.39 3.18 7.63 9.27 14.62 10.73 22.63-2.61-1-1.82-4.26-4.56-5.43 1.42 2.4 1.63 5.41 3.69 6.69 1.82-.7 2.22.69 2.26 1.82 4.79 17.59 6.78 10.43 3.17 30.98-3.36 25.57-23.69 34.34-39.44 50.52 1.3-.17 2.56-.31 4.43-.52-2.3 3.95-6.95 2.48-8.86 5.99-.61-.69-1-1.17-1.61-1.82-3.65 1.39-7.47 2.82-11.29 4.3.04.21.09.43.13.65 1.35-.22 2.69-.43 4.04-.65.09.17.13.39.17.56-10.4 3.75-21.28 6.97-32.37 7.69-1.17.13-2.39.22-2.48-1.56 0-.13-1.08-.26-1.74-.91 5.52-.91 11.04-1.78 16.81-2.74-.35.74-.61 1.3-.91 1.95 2.82-1.13 5.43-2.22 8.69-3.56-1.13-.35-1.69-.52-2.26-.7-.04-.61-.09-1.26-.13-1.69-8.76 3.32-17.89 5.23-27.11 4.95-3.04-2.52-6.6-1.87-10.04-1.87-6.27-2.17-12.42-4.62-19.12-5.21-23.05-4.76-45.81-18.75-55.43-40.92-7.47-17.56-3.8-37.26.52-55.35C9.11 44.61 18.64 26 32.59 18.04c8.08-6.63 17.6-11.25 26.57-16.45C62.2-.28 64.29-.32 68.41.55c-1.65 1.82-2.43 4.17-4.95 5.13-2.51 1.7-2.6 5.51-6.39 6.08-4.87.81-3.51 3.88-6.95 6.86 7.56.33 3-2.46 6.3-3.39.13.35.26.74.52 1.48C67.95 7.48 81.46 3.96 95.56 4.03c5.56-1.91 6.56-1.78 11.73-.26 4.82 1.43 9.64 2.74 14.55 3.69 7.35 2.08 13.32 7.37 19.64 11.34 3.04.39 4.52 2.78 6.17 4.82 4.43 5.52 9.99 10.04 13.38 16.42 3.68 5.87 5.87 12.95 11.25 17.46ZM78.36 38.65c.48-.74 1-1.48 1.48-2.22-2.04.17-3.82.78-2.13 2.82-.04.96.26 1.91 1.39 1.26 2.52-1.39 4.91-3.04 7.52-4.69-3.43-.43-5.65 1.69-8.25 2.82Zm4.39 95.44c5.04 0 10.08 2 15.08.35 0-.26.04-.57.04-.83-8.3-1.22-16.59-2.48-24.89-3.74-.09.35-.13.65-.22 1 3.32 1.16 7.26 1.22 10.17 3.21-.3.13-.65.26-1 .39q2.17 1.34 5.04.69c-1.69-.43-2.95-.74-4.21-1.09Zm58.82-90.4c1.3 2.26 2.3 4.78 5.17 6.34-1.22-3.78-2.13-4.78-5.3-6.21.79-5.11-4.78-8.25-7.95-11.34-3.26.13-5.27-2.83-8.34-3.43-1.25-2.66-4-4.2-6.95-3.34-.04.78-.04 1.39-.09 2-1.39-.48-2.65-1.91-5.04-.74 5.91 2.56 10.77 5.73 15.25 9.56-.48-1.09-1-2.13-1.48-3.17 7.6 6.31 11.9 15.52 18.38 22.59-.04 2.17 1.17 1.43 2.3 1.09-2.89-5.42-6.04-10.63-9.6-15.64.22-.17.44-.35.65-.52 1 .96 2 1.91 3 2.82ZM63.63 23.18l.09.04c2.1-4.39 7.48-4.31 9.99-8.3-13.9 4.71-29.89 17.73-33.15 32.75-.13.74-1.56 2.04.78 2.39.22 7.39-6.13-4.4-4.78 14.77 2.75-6.28 6.28-10.96 9.3-16.59 1-3.3 2.82-5.73 5.17-8.04 3.95-3.56.56-4.22 6.95-7.99 3.13-4.07 8.09-2.35 11.08-5.26 3.37-3.78 8.18-4.05 12.69-6.69-1-.61-1.52-.87-2.52-1.43 10.01-4.25 20.62-7.22 30.93-3.17 3.26-1.17 6.18 1.58 8.95-.7-10.28-5.78-13.5-2.57-23.07-5.6-11.93.26-22.11 8.56-32.41 13.81ZM17.98 121.8c-.83-2.57-2.04-4.87-4.3-6.52.39 2.87 1.74 5.08 4.39 6.43.18 6.72 5.98 9.85 10.64 13.42-.13.22-.3.43-.43.65a42.959 42.959 0 0 1-12.64-8.6c-.17.17-.35.35-.52.57 17.43 21.78 50.88 29.78 77.72 28.59-4.01-.58-6.55-3.59-10.25-3.65-3.61-.04-7.08-2-10.77-.83-9.19-2.71-19.35-3.79-27.63-9.04 8.64 3.69 17.81 5.21 27.06 7.12-1.1-3.85-6.74-2.92-9.86-3.34-14.67-7.19-29.45-14.97-41.57-26.15-.17.65-.35 1.22-.48 1.78-.43-.17-.91-.3-1.35-.43Zm44.31-64c-3.7 1.75-3.92 6.78-3.87 10.56.61-1.43 1.26-2.82 1.96-4.39.35.83.56 1.35.87 2.09 7.37-4.45 13.03-12.22 21.68-13.73 3.88-.56 8.08-3.4 11.9-1.22 3.06 1.81 4.53-1.45 7.34-2.52.17 1.22.3 1.83.39 2.39 5.82.26 10.43 3.3 15.12 5.78-1.22 3.56 3.87 3.65 3.87 6.86-.91-.43-1.69-.83-2.47-1.22-.3.35-.57.69-.87 1.09 1.3.61 2.65 1.26 4.48 2.13-1.74.7-2.35.91-3.26 1.3 1.95 3.56.13 7.56 1.43 11.12 1.35-.91 2.35-1.61 3.52-2.39 2.18 4.47 4.32 8.49 7.08 12.51 4.11-11.11 3.32-9.31-3-19.5 1 .13 1.69.26 2.43.35.17-.17.35-.35.48-.52-1-.65-2.04-1.26-2.48-1.56.13-5.39-3.39-7.73-6.3-10.56h4.52c-2.82-4.17-6.85-6.88-9.56-10.99-2.26-3.3-4.73-5.39-8.82-5.39-1.43 0-3.26.13-3.48-2.39-2.81 2.58-5.6.92-8.56 1.22-1.91.61-3.74 1.83-5.87.39-7.28 3.35-14.08 7.35-20.11 13.16.56-1.61.87-2.48 1.17-3.3-.17-.09-.35-.17-.52-.26-2.17 2.26-4.34 4.52-6.56 6.82 1.17 1.74-.65 2.56-1.39 4.3-.57-1-.91-1.61-1.26-2.21.52-.78 1.04-1.56 1.56-2.39-1.48.43-2.43 1.13-1.43 2.48Zm44.14 18.59c.78-4.39-3.48-6.56-6.56-9.3-5.42-.7-12.55 10.96-9.69 16.07 1.82 3.07 4.91 9.34 9.08 6.13 4.26-2.83 6.99-6.65 7.17-12.9Zm-75.85 13.6c2.26-2.28.18-4.1 1.91-6.04.13-.09 0-.87-.17-.91-1.78-.74-1.04-2.3-1.13-3.52.08-8.25-1.39-15.94-1.17-24.28-4.91 8.82-5.95 17.59-2 27.37-1.3-.91-1.82-1.26-2.87-2 1.22 6.82 3.52 12.55 7.17 17.9-.56-2.78-1.13-5.56-1.74-8.51ZM156 109.15c1.56-5.12 2.26-9.69 3.65-14.03-.09 1.48-.17 2.96-.3 5.21 1.52-2.74 2.3-6.65 1.21-8.38-1.65-2.65-1.52-5.78-1.35-8.34.52-2.41-3.57-14.92-6.39-11.99 4.65 10.15 1.96 21.66 1.7 32.32-.48.96.74 2.82 1.48 5.21Zm-40.53-8.25c6.2-.85 7.03-8.12 8.08-13.12.82-4.56.74-5.17-3.95-7.95 2.57 7.77-3.29 13.65-6.69 20.07.22.13.39.3.56.48.96-.8 1.45-1.82 2.78-2.05-.26.87-.48 1.52-.78 2.57ZM75.11 88.43c.87 3.43 3.91 5.08 4 8.12 0 .09.43.17.65.26 3.01.5 5.71 3.34 8.47.91-2.52-2-4.65-3.74-6.99-5.65.96-.22 1.48-.35 2.22-.52-.56-1.61-1.09-3.17-1.65-4.73-2.48.74-1.87 2.52-1.3 4.87-1.91-1.17-3.26-2-5.39-3.26Zm21.85 34.54c6.24-.49 4.21 4.83 12.08-.43 2.03-2.35 7.49-.26 7.43-3.56-4.5-.61-6.96.24-10.69 3.13.52-.91.74-1.26 1.26-2.13-3.94 1.12-7.12.24-10.08 3Zm6.78-100.35c-2.8-.49-4.12.08-6.22-.66-1.99-1.49-3.83-1.84-5.59.49-1.49.62-3.54.55-5.26 1.04.17.83.35 1.39.43 1.91 6.04-1.56 11.49 1.49 16.64-2.78ZM70.85 43.73c2.8.76 6.96-.45 5.61-3.82-2.22-1.31-4.76 1.82-5.61 3.82ZM42.4 126.58c.17-.22.35-.43.52-.61-2.61-2.17-5.26-4.34-7.86-6.52-.22.26-.39.48-.61.74 2.35 2.56 4.69 5.08 7.95 6.38Zm110.43-56.17c1.35-2.61-.44-6.6-4.21-9.38 1.52 3.39 2.82 6.3 4.21 9.38Zm7.51 17.12c2.35-.35 2.3-1.48-.52-5.13.22 2.09.35 3.61.52 5.13Zm-98.31-8.99c-1.61 1.3-1.78 2.43 0 3.69v-3.69Zm52.22 37.36q-2.3-.09-3.21 1.65c1.09-.56 2.13-1.09 3.21-1.65Zm3.04-47.57q1.35-2.78-.7-3.78c.22 1.13.39 2.17.7 3.78ZM66.5 77.1c.48-1.48 1.39-2.48-.26-3.69-.13 1.22-1.35 2.08.26 3.69ZM8.64 104.29c-.78-1.95-1.3-3.26-1.87-4.52-.48 1.65-.48 3.17 1.87 4.52Zm28.15-2.3c-.22.09-.48.17-.69.3.48 1 .91 2.04 1.39 3.09.22-.13.48-.26.74-.35-.48-1.04-.96-2.04-1.43-3.04Zm105.83 49.61c-1.25-2.24-2.77-1.85-2.91.3.91-.09 1.69-.17 2.91-.3Zm-52-42.88c.09.26.22.52.3.83.83-.26 1.7-.57 2.52-.83-.09-.3-.22-.61-.3-.91-.83.31-1.69.61-2.52.91Zm24.19-87.06c-.13.22-.26.44-.39.61q1.3 1.17 3.39 1.17c-1.13-.7-2.08-1.22-3-1.78ZM57.12 72.53c.22 0 .48 0 .74-.04.13-.78.26-1.61.39-2.43-.22-.04-.43-.04-.65-.09-.13.83-.3 1.69-.48 2.56Z" fill-rule="evenodd"/></svg>