<svg xmlns="http://www.w3.org/2000/svg" viewBox="0 0 193.004 193.004 " ><path d="M111.181 114.016c-6.679-34.395-38.188-50.026-70.345-43.935C44.523 50.783 62.59 35.004 74.33 20.336c1.665-2.08 2.523-5.738 0-7.698-6.189-4.808-11.965-6.305-17.286-5.546-.369-1.01-1.346-1.763-2.615-1.364C35.542 11.675 23.311 31.85 15.128 48.57 4.33 70.638-1.087 96.185.182 120.707c2.001 38.66 36.518 75.524 77.621 64.791 30.007-7.835 38.524-44.98 33.378-71.482zm-76.906 30.936c.003-.013.011-.021.014-.033.188-.725.349-1.457.52-2.188a15.37 15.37 0 0 1 1.507 2.382c-.705.092-1.391.151-2.047.165-.004-.114.01-.216.006-.326zm-8.694-90.726a5.21 5.21 0 0 0 1.57.397 129.048 129.048 0 0 0-4.421 9.845 5.842 5.842 0 0 0-1.63-.238c1.358-3.39 2.878-6.715 4.481-10.004zm-4.123 98.134a59.425 59.425 0 0 0 4.121 3.846 5.22 5.22 0 0 0-.554.894c-1.286-1.505-2.5-3.069-3.567-4.74zm37.072-.133c-1.656-2.162-2.907-4.549-3.693-7.156a1.523 1.523 0 0 0-.186-.576 20.73 20.73 0 0 1-.555-2.77c2.716 3.692 4.899 7.804 6.924 11.96a14.708 14.708 0 0 1-2.49-1.458z"/><path d="M117.444 63.861c3.635-14.682 13.549-24.817 20.751-38.058 1.171-2.153.711-5.501-1.741-6.64-4.483-2.083-8.512-4.394-12.994-6.109-1.357-2.893-5.453-4.792-8.589-1.966-5.545 4.997-11.599 11.406-16.436 18.566-6.414 7.868-11.02 17.418-12.55 26.604-.181 1.088.007 2.191.433 3.197-.231.401-.463.797-.695 1.199-1.171 2.029-.504 4.756 1.555 5.931 24.414 13.92 34.513 36.586 33.794 60.468-1.236 3.484-1.55 7.247-1.079 11.03-1.976 12.018-6.501 24.052-13.184 35.166-1.502 2.497-.942 4.834.524 6.418.384 1.25 1.393 2.307 3.207 2.717 38.922 8.792 78.079-9.835 82.302-52.301 3.93-39.516-37.234-72.818-75.298-66.222zm14.807 109.81c.137-.129.259-.271.394-.403 3.573-.277 6.839-1.281 9.614-2.896.032.138.053.265.086.404.09.381.284.67.439.996a74.48 74.48 0 0 1-10.533 1.899zm27.607-74.293c-.369.677-.693 1.357-1.019 2.038-.026-.19-.03-.386-.059-.576.049-1.406.297-2.855.679-4.332.041.028.087.052.128.08.196.814.356 1.644.481 2.489-.065.104-.149.191-.21.301zm18.595 42.614c.015-.928 0-1.863-.033-2.804a29.476 29.476 0 0 0 1.65-3.199c-.392 2.101-.963 4.081-1.617 6.003z"/></svg>